<svg width="49" height="54" viewBox="0 0 49 54" fill="none" xmlns="http://www.w3.org/2000/svg">
<path d="M24.3333 24.3333C21.5044 24.3333 18.7913 23.2095 16.7909 21.2091C14.7905 19.2088 13.6667 16.4956 13.6667 13.6667C13.6667 10.8377 14.7905 8.12458 16.7909 6.12419C18.7913 4.12381 21.5044 3 24.3333 3C27.1623 3 29.8754 4.12381 31.8758 6.12419C33.8762 8.12458 35 10.8377 35 13.6667C35 16.4956 33.8762 19.2088 31.8758 21.2091C29.8754 23.2095 27.1623 24.3333 24.3333 24.3333Z" stroke="#3D3D3D" stroke-width="5.33333" stroke-linecap="round"/>
<path d="M3.00001 51V48.3333C3.00001 44.0899 4.68572 40.0202 7.6863 37.0196C10.6869 34.0191 14.7565 32.3333 19 32.3333H29.6667C33.9101 32.3333 37.9798 34.0191 40.9804 37.0196C43.981 40.0202 45.6667 44.0899 45.6667 48.3333V51" stroke="#3D3D3D" stroke-width="5.33333" stroke-linecap="round"/>
</svg>
