<svg width="150" height="150" viewBox="0 0 150 150" fill="none" xmlns="http://www.w3.org/2000/svg">
<g clip-path="url(#clip0)">
<rect width="150" height="150" fill="#D3D3D3"/>
<path d="M102.568 50.544C101.896 49.872 100.648 48.96 98.824 47.808C97.096 46.656 94.936 45.552 92.344 44.496C89.848 43.44 87.112 42.528 84.136 41.76C81.16 40.896 78.136 40.464 75.064 40.464C69.688 40.464 65.608 41.472 62.824 43.488C60.136 45.504 58.792 48.336 58.792 51.984C58.792 54.768 59.656 56.976 61.384 58.608C63.112 60.24 65.704 61.632 69.16 62.784C72.616 63.936 76.936 65.184 82.12 66.528C88.84 68.16 94.648 70.176 99.544 72.576C104.536 74.88 108.328 77.952 110.92 81.792C113.608 85.536 114.952 90.528 114.952 96.768C114.952 102.24 113.944 106.944 111.928 110.88C109.912 114.72 107.128 117.84 103.576 120.24C100.024 122.64 95.992 124.416 91.48 125.568C86.968 126.624 82.168 127.152 77.08 127.152C71.992 127.152 66.904 126.624 61.816 125.568C56.728 124.512 51.832 123.024 47.128 121.104C42.424 119.088 38.104 116.688 34.168 113.904L42.952 96.768C43.816 97.632 45.352 98.784 47.56 100.224C49.768 101.568 52.456 102.96 55.624 104.4C58.792 105.744 62.248 106.896 65.992 107.856C69.736 108.816 73.528 109.296 77.368 109.296C82.744 109.296 86.824 108.384 89.608 106.56C92.392 104.736 93.784 102.144 93.784 98.784C93.784 95.712 92.68 93.312 90.472 91.584C88.264 89.856 85.192 88.368 81.256 87.12C77.32 85.776 72.664 84.336 67.288 82.8C60.856 80.976 55.48 78.96 51.16 76.752C46.84 74.448 43.624 71.568 41.512 68.112C39.4 64.656 38.344 60.336 38.344 55.152C38.344 48.144 39.976 42.288 43.24 37.584C46.6 32.784 51.112 29.184 56.776 26.784C62.44 24.288 68.728 23.04 75.64 23.04C80.44 23.04 84.952 23.568 89.176 24.624C93.496 25.68 97.528 27.072 101.272 28.8C105.016 30.528 108.376 32.4 111.352 34.416L102.568 50.544Z" fill="#3D3D3D"/>
<path d="M80 -38L-33 111" stroke="white" stroke-width="10" stroke-linecap="round"/>
<path d="M58 0L-1.5 77V0H58Z" fill="white"/>
<path d="M91 150L150.5 73V150H91Z" fill="white"/>
</g>
<defs>
<clipPath id="clip0">
<rect width="150" height="150" fill="white"/>
</clipPath>
</defs>
</svg>
